<svg xmlns="http://www.w3.org/2000/svg" viewBox="0 0 66.732 32.323">
  <path fill="#b8cc29" d="M16.404 1.875h39.67l9.486 11.646.179 7.76a3.885 3.885 0 01-3.971 3.886H46.589L44.863 23.5l-2.587 1.664H18.389a1.945 1.945 0 01-1.986-1.9z"/>
  <path d="M63.782 26.751h-2.259a6.328 6.328 0 01-2.059 3.978 6.227 6.227 0 01-8.323 0 6.326 6.326 0 01-2.059-3.978h-2.628a2.923 2.923 0 01-2.028-.817 2.922 2.922 0 01-2.028.817h-7.79a6.328 6.328 0 01-2.059 3.978 6.227 6.227 0 01-8.323 0 6.326 6.326 0 01-2.059-3.978h-4.1a2.938 2.938 0 01-2.086-.871 2.984 2.984 0 01-.864-2.1v-9.66h1.843v9.288a1.492 1.492 0 00.432 1.051 1.469 1.469 0 001.043.435h3.79a6.32 6.32 0 012.144-3.73 6.225 6.225 0 018.04 0 6.322 6.322 0 012.144 3.73h7.477a1.47 1.47 0 001.043-.435 1.492 1.492 0 00.432-1.051V3.344a1.492 1.492 0 00-.432-1.051 1.469 1.469 0 00-1.043-.435H0V0h42.4a2.924 2.924 0 012.028.817A2.925 2.925 0 0146.454 0h5.9c2.88 0 5.008 1.7 6.636 3.344 0 0 7.742 8.479 7.742 10.43v10a2.984 2.984 0 01-.864 2.1 2.937 2.937 0 01-2.086.877zm-35.394-5.2a4.4 4.4 0 00-2.458.751 4.465 4.465 0 001.595 8.08 4.41 4.41 0 004.542-1.9 4.485 4.485 0 00-.55-5.63 4.408 4.408 0 00-3.128-1.303zM55.3 30.466a4.4 4.4 0 002.458-.751 4.465 4.465 0 00-1.595-8.08 4.41 4.41 0 00-4.542 1.9 4.485 4.485 0 00.55 5.63 4.407 4.407 0 003.129 1.301zm4.058-23.778h-5.53a1.469 1.469 0 00-1.043.435 1.492 1.492 0 00-.432 1.051v2.6a1.492 1.492 0 00.432 1.051 1.469 1.469 0 001.043.435h10.015c-1.867-2.36-4.485-5.572-4.485-5.572zm5.53 7.431H53.459a2.938 2.938 0 01-2.086-.871 2.984 2.984 0 01-.864-2.1V7.8a2.984 2.984 0 01.864-2.1 2.938 2.938 0 012.086-.871H57.5c-1.177-.98-2.151-2.685-5.149-2.972h-5.53a1.469 1.469 0 00-1.043.435 1.493 1.493 0 00-.432 1.051v20.064a1.493 1.493 0 00.432 1.051 1.47 1.47 0 001.043.435h2.315a6.321 6.321 0 012.144-3.73 6.225 6.225 0 018.04 0 6.322 6.322 0 012.144 3.73h1.947a1.47 1.47 0 001.043-.435 1.492 1.492 0 00.432-1.051zm-39.449-7.06H3.687V5.2h21.752zm0 5.2H7.374V10.4h18.065z"/>
</svg>