<svg xmlns="http://www.w3.org/2000/svg" width="20.5" height="18.42"><g fill="#FEFEFF"><path d="M20.358 2.903a.748.748 0 0 0-.607-.312H8.523a.75.75 0 0 0 0 1.5H18.71l-2.091 6.272H7.381L4.932.568A.749.749 0 0 0 4.205 0H.75a.75.75 0 0 0 0 1.5h2.869l2.449 9.795a.75.75 0 0 0 .728.568h10.363a.752.752 0 0 0 .712-.513l2.591-7.772a.747.747 0 0 0-.104-.675zM8.074 13.466a2.48 2.48 0 0 0-2.477 2.478 2.48 2.48 0 0 0 2.477 2.477 2.48 2.48 0 0 0 2.478-2.477 2.481 2.481 0 0 0-2.478-2.478zm0 3.454a.978.978 0 1 1 .001-1.955.978.978 0 0 1-.001 1.955zM15.847 13.466a2.48 2.48 0 0 0-2.478 2.478c0 1.365 1.111 2.477 2.478 2.477s2.478-1.111 2.478-2.477a2.481 2.481 0 0 0-2.478-2.478zm0 3.454a.979.979 0 0 1 0-1.955.979.979 0 0 1 0 1.955z"/></g></svg>
